<svg width="311" height="226" viewBox="0 0 311 226" fill="none" xmlns="http://www.w3.org/2000/svg">
<path d="M152.86 80.73H131.15L128.68 67.99H113.34L110.87 80.73H90.2002L105.02 -2.6226e-05H138.04L152.86 80.73ZM126.21 52.78L121.66 23.92H120.75L116.2 52.78H126.21ZM187.316 80.73H165.606V20.67H156.246V7.01998L169.506 -2.6226e-05H187.316V80.73ZM62.66 223.73H40.95L38.48 210.99H23.14L20.67 223.73H-3.90131e-05L14.82 143H47.84L62.66 223.73ZM36.01 195.78L31.46 166.92H30.55L26 195.78H36.01ZM92.1761 197.21C92.1761 199.897 92.7394 201.89 93.8661 203.19C94.9927 204.49 96.8127 205.14 99.3261 205.14C101.926 205.14 103.703 204.533 104.656 203.32C105.696 202.02 106.216 199.94 106.216 197.08V143H128.576V198.38C128.576 207.653 126.019 214.413 120.906 218.66C115.879 222.907 108.426 225.03 98.5461 225.03C88.7527 225.03 81.4294 222.95 76.5761 218.79C71.8094 214.543 69.4261 207.827 69.4261 198.64V143H92.1761V197.21ZM186.942 162.63H171.862V223.73H149.632V162.63H133.642L134.942 143H188.242L186.942 162.63ZM198.142 151.45C203.169 144.95 211.359 141.7 222.712 141.7C234.066 141.7 242.169 144.907 247.022 151.32C251.962 157.733 254.432 168.177 254.432 182.65C254.432 197.037 251.919 207.697 246.892 214.63C241.866 221.563 233.719 225.03 222.452 225.03C211.186 225.03 203.082 221.607 198.142 214.76C193.202 207.913 190.732 197.297 190.732 182.91C190.732 168.437 193.202 157.95 198.142 151.45ZM232.072 182.65C232.072 174.677 231.422 169.303 230.122 166.53C228.909 163.67 226.352 162.24 222.452 162.24C218.639 162.24 216.169 163.67 215.042 166.53C213.916 169.303 213.352 174.633 213.352 182.52V185.64C213.352 194.047 213.959 199.593 215.172 202.28C216.472 204.88 219.029 206.18 222.842 206.18C226.742 206.18 229.256 204.923 230.382 202.41C231.509 199.897 232.072 194.697 232.072 186.81V182.65ZM259.643 167.31C259.643 159.597 261.897 153.4 266.403 148.72C270.91 144.04 277.063 141.7 284.863 141.7C292.75 141.7 300.81 142.48 309.043 144.04L306.443 164.84C297.863 162.847 291.97 161.85 288.763 161.85C284.69 161.85 282.653 163.497 282.653 166.79C282.653 168.09 283.607 169.347 285.513 170.56C287.507 171.773 289.89 173.073 292.663 174.46C295.437 175.76 298.21 177.363 300.983 179.27C303.757 181.09 306.097 183.733 308.003 187.2C309.997 190.667 310.993 194.653 310.993 199.16C310.993 207.393 308.783 213.763 304.363 218.27C299.943 222.777 293.66 225.03 285.513 225.03C277.453 225.03 269.567 223.773 261.853 221.26L263.283 201.89C272.557 204.577 279.013 205.92 282.653 205.92C286.293 205.92 288.113 204.317 288.113 201.11C288.113 199.463 287.117 197.947 285.123 196.56C283.217 195.173 280.877 193.787 278.103 192.4C275.33 191.013 272.513 189.41 269.653 187.59C266.88 185.77 264.497 183.127 262.503 179.66C260.597 176.193 259.643 172.077 259.643 167.31Z" fill="white"/>
</svg>
