<svg width="1027" height="193" viewBox="0 0 1027 193" fill="none" xmlns="http://www.w3.org/2000/svg">
<path d="M144.6 189.3H94.5001L88.8001 159.9H53.4001L47.7001 189.3H9.77702e-05L34.2001 2.99979H110.4L144.6 189.3ZM83.1001 124.8L72.6001 58.1998H70.5001L60.0001 124.8H83.1001ZM224.114 189.3H174.014V50.6998H152.414V19.1998L183.014 2.99979H224.114V189.3ZM453.096 189.3H402.996L397.296 159.9H361.896L356.196 189.3H308.496L342.696 2.99979H418.896L453.096 189.3ZM391.596 124.8L381.096 58.1998H378.996L368.496 124.8H391.596ZM521.21 128.1C521.21 134.3 522.51 138.9 525.11 141.9C527.71 144.9 531.91 146.4 537.71 146.4C543.71 146.4 547.81 145 550.01 142.2C552.41 139.2 553.61 134.4 553.61 127.8V2.99979H605.21V130.8C605.21 152.2 599.31 167.8 587.51 177.6C575.91 187.4 558.71 192.3 535.91 192.3C513.31 192.3 496.41 187.5 485.21 177.9C474.21 168.1 468.71 152.6 468.71 131.4V2.99979H521.21V128.1ZM739.901 48.2998H705.101V189.3H653.801V48.2998H616.901L619.901 2.99979H742.901L739.901 48.2998ZM765.748 22.4998C777.348 7.49979 796.248 -0.000207901 822.448 -0.000207901C848.648 -0.000207901 867.348 7.39979 878.548 22.1998C889.948 36.9998 895.648 61.0998 895.648 94.4998C895.648 127.7 889.848 152.3 878.248 168.3C866.648 184.3 847.848 192.3 821.848 192.3C795.848 192.3 777.148 184.4 765.748 168.6C754.348 152.8 748.648 128.3 748.648 95.0998C748.648 61.6998 754.348 37.4998 765.748 22.4998ZM844.048 94.4998C844.048 76.0998 842.548 63.6998 839.548 57.2998C836.748 50.6998 830.848 47.3998 821.848 47.3998C813.048 47.3998 807.348 50.6998 804.748 57.2998C802.148 63.6998 800.848 75.9998 800.848 94.1998V101.4C800.848 120.8 802.248 133.6 805.048 139.8C808.048 145.8 813.948 148.8 822.748 148.8C831.748 148.8 837.548 145.9 840.148 140.1C842.748 134.3 844.048 122.3 844.048 104.1V94.4998ZM907.674 59.0998C907.674 41.2998 912.874 26.9998 923.274 16.1998C933.674 5.39979 947.874 -0.000207901 965.874 -0.000207901C984.074 -0.000207901 1002.67 1.79979 1021.67 5.39979L1015.67 53.3998C995.874 48.7998 982.274 46.4998 974.874 46.4998C965.474 46.4998 960.774 50.2998 960.774 57.8998C960.774 60.8998 962.974 63.7998 967.374 66.5998C971.974 69.3998 977.474 72.3998 983.874 75.5998C990.274 78.5998 996.674 82.2998 1003.07 86.6998C1009.47 90.8998 1014.87 96.9998 1019.27 105C1023.87 113 1026.17 122.2 1026.17 132.6C1026.17 151.6 1021.07 166.3 1010.87 176.7C1000.67 187.1 986.174 192.3 967.374 192.3C948.774 192.3 930.574 189.4 912.774 183.6L916.074 138.9C937.474 145.1 952.374 148.2 960.774 148.2C969.174 148.2 973.374 144.5 973.374 137.1C973.374 133.3 971.074 129.8 966.474 126.6C962.074 123.4 956.674 120.2 950.274 117C943.874 113.8 937.374 110.1 930.774 105.9C924.374 101.7 918.874 95.5998 914.274 87.5998C909.874 79.5998 907.674 70.0998 907.674 59.0998Z" fill="white"/>
</svg>
