<svg width="318" height="232" viewBox="0 0 318 232" fill="none" xmlns="http://www.w3.org/2000/svg">
<mask id="path-1-outside-1_224_493" maskUnits="userSpaceOnUse" x="-0.897949" y="-0.27002" width="319" height="232" fill="black">
<rect fill="white" x="-0.897949" y="-0.27002" width="319" height="232"/>
<path d="M156.461 83.73H134.751L132.281 70.99H116.941L114.471 83.73H93.8012L108.621 2.99997H141.641L156.461 83.73ZM129.811 55.78L125.261 26.92H124.351L119.801 55.78H129.811ZM190.917 83.73H169.207V23.67H159.847V10.02L173.107 2.99997H190.917V83.73ZM66.261 226.73H44.551L42.081 213.99H26.741L24.271 226.73H3.60104L18.421 146H51.441L66.261 226.73ZM39.611 198.78L35.061 169.92H34.151L29.601 198.78H39.611ZM95.7771 200.21C95.7771 202.897 96.3405 204.89 97.4671 206.19C98.5938 207.49 100.414 208.14 102.927 208.14C105.527 208.14 107.304 207.533 108.257 206.32C109.297 205.02 109.817 202.94 109.817 200.08V146H132.177V201.38C132.177 210.653 129.62 217.413 124.507 221.66C119.48 225.907 112.027 228.03 102.147 228.03C92.3538 228.03 85.0305 225.95 80.1771 221.79C75.4105 217.543 73.0271 210.827 73.0271 201.64V146H95.7771V200.21ZM190.543 165.63H175.463V226.73H153.233V165.63H137.243L138.543 146H191.843L190.543 165.63ZM201.743 154.45C206.77 147.95 214.96 144.7 226.313 144.7C237.667 144.7 245.77 147.907 250.623 154.32C255.563 160.733 258.033 171.177 258.033 185.65C258.033 200.037 255.52 210.697 250.493 217.63C245.467 224.563 237.32 228.03 226.053 228.03C214.787 228.03 206.683 224.607 201.743 217.76C196.803 210.913 194.333 200.297 194.333 185.91C194.333 171.437 196.803 160.95 201.743 154.45ZM235.673 185.65C235.673 177.677 235.023 172.303 233.723 169.53C232.51 166.67 229.953 165.24 226.053 165.24C222.24 165.24 219.77 166.67 218.643 169.53C217.517 172.303 216.953 177.633 216.953 185.52V188.64C216.953 197.047 217.56 202.593 218.773 205.28C220.073 207.88 222.63 209.18 226.443 209.18C230.343 209.18 232.857 207.923 233.983 205.41C235.11 202.897 235.673 197.697 235.673 189.81V185.65ZM263.245 170.31C263.245 162.597 265.498 156.4 270.005 151.72C274.511 147.04 280.665 144.7 288.465 144.7C296.351 144.7 304.411 145.48 312.645 147.04L310.045 167.84C301.465 165.847 295.571 164.85 292.365 164.85C288.291 164.85 286.255 166.497 286.255 169.79C286.255 171.09 287.208 172.347 289.115 173.56C291.108 174.773 293.491 176.073 296.265 177.46C299.038 178.76 301.811 180.363 304.585 182.27C307.358 184.09 309.698 186.733 311.605 190.2C313.598 193.667 314.595 197.653 314.595 202.16C314.595 210.393 312.385 216.763 307.965 221.27C303.545 225.777 297.261 228.03 289.115 228.03C281.055 228.03 273.168 226.773 265.455 224.26L266.885 204.89C276.158 207.577 282.615 208.92 286.255 208.92C289.895 208.92 291.715 207.317 291.715 204.11C291.715 202.463 290.718 200.947 288.725 199.56C286.818 198.173 284.478 196.787 281.705 195.4C278.931 194.013 276.115 192.41 273.255 190.59C270.481 188.77 268.098 186.127 266.105 182.66C264.198 179.193 263.245 175.077 263.245 170.31Z"/>
</mask>
<path d="M156.461 83.73V86.73H160.062L159.412 83.1883L156.461 83.73ZM134.751 83.73L131.806 84.301L132.277 86.73H134.751V83.73ZM132.281 70.99L135.226 70.419L134.755 67.99H132.281V70.99ZM116.941 70.99V67.99H114.467L113.996 70.419L116.941 70.99ZM114.471 83.73V86.73H116.945L117.416 84.301L114.471 83.73ZM93.8012 83.73L90.8505 83.1883L90.2004 86.73H93.8012V83.73ZM108.621 2.99998V-2.28882e-05H106.122L105.671 2.4583L108.621 2.99998ZM141.641 2.99998L144.592 2.4583L144.141 -2.28882e-05H141.641V2.99998ZM129.811 55.78V58.78H133.321L132.775 55.3128L129.811 55.78ZM125.261 26.92L128.225 26.4528L127.825 23.92H125.261V26.92ZM124.351 26.92V23.92H121.787L121.388 26.4528L124.351 26.92ZM119.801 55.78L116.838 55.3128L116.291 58.78H119.801V55.78ZM156.461 83.73V80.73H134.751V83.73V86.73H156.461V83.73ZM134.751 83.73L137.696 83.159L135.226 70.419L132.281 70.99L129.336 71.561L131.806 84.301L134.751 83.73ZM132.281 70.99V67.99H116.941V70.99V73.99H132.281V70.99ZM116.941 70.99L113.996 70.419L111.526 83.159L114.471 83.73L117.416 84.301L119.886 71.561L116.941 70.99ZM114.471 83.73V80.73H93.8012V83.73V86.73H114.471V83.73ZM93.8012 83.73L96.7519 84.2717L111.572 3.54165L108.621 2.99998L105.671 2.4583L90.8505 83.1883L93.8012 83.73ZM108.621 2.99998V5.99998H141.641V2.99998V-2.28882e-05H108.621V2.99998ZM141.641 2.99998L138.691 3.54165L153.511 84.2717L156.461 83.73L159.412 83.1883L144.592 2.4583L141.641 2.99998ZM129.811 55.78L132.775 55.3128L128.225 26.4528L125.261 26.92L122.298 27.3872L126.848 56.2472L129.811 55.78ZM125.261 26.92V23.92H124.351V26.92V29.92H125.261V26.92ZM124.351 26.92L121.388 26.4528L116.838 55.3128L119.801 55.78L122.765 56.2472L127.315 27.3872L124.351 26.92ZM119.801 55.78V58.78H129.811V55.78V52.78H119.801V55.78ZM190.917 83.73V86.73H193.917V83.73H190.917ZM169.207 83.73H166.207V86.73H169.207V83.73ZM169.207 23.67H172.207V20.67H169.207V23.67ZM159.847 23.67H156.847V26.67H159.847V23.67ZM159.847 10.02L158.444 7.36861L156.847 8.21373V10.02H159.847ZM173.107 2.99998V-2.28882e-05H172.362L171.704 0.34861L173.107 2.99998ZM190.917 2.99998H193.917V-2.28882e-05H190.917V2.99998ZM190.917 83.73V80.73H169.207V83.73V86.73H190.917V83.73ZM169.207 83.73H172.207V23.67H169.207H166.207V83.73H169.207ZM169.207 23.67V20.67H159.847V23.67V26.67H169.207V23.67ZM159.847 23.67H162.847V10.02H159.847H156.847V23.67H159.847ZM159.847 10.02L161.251 12.6713L174.511 5.65134L173.107 2.99998L171.704 0.34861L158.444 7.36861L159.847 10.02ZM173.107 2.99998V5.99998H190.917V2.99998V-2.28882e-05H173.107V2.99998ZM190.917 2.99998H187.917V83.73H190.917H193.917V2.99998H190.917ZM66.261 226.73V229.73H69.8619L69.2117 226.188L66.261 226.73ZM44.551 226.73L41.6059 227.301L42.0768 229.73H44.551V226.73ZM42.081 213.99L45.0262 213.419L44.5553 210.99H42.081V213.99ZM26.741 213.99V210.99H24.2668L23.7959 213.419L26.741 213.99ZM24.271 226.73V229.73H26.7453L27.2162 227.301L24.271 226.73ZM3.60104 226.73L0.650342 226.188L0.000179768 229.73H3.60104V226.73ZM18.421 146V143H15.9216L15.4703 145.458L18.421 146ZM51.441 146L54.3917 145.458L53.9404 143H51.441V146ZM39.611 198.78V201.78H43.1211L42.5744 198.313L39.611 198.78ZM35.061 169.92L38.0244 169.453L37.6251 166.92H35.061V169.92ZM34.151 169.92V166.92H31.587L31.1876 169.453L34.151 169.92ZM29.601 198.78L26.6376 198.313L26.091 201.78H29.601V198.78ZM66.261 226.73V223.73H44.551V226.73V229.73H66.261V226.73ZM44.551 226.73L47.4962 226.159L45.0262 213.419L42.081 213.99L39.1359 214.561L41.6059 227.301L44.551 226.73ZM42.081 213.99V210.99H26.741V213.99V216.99H42.081V213.99ZM26.741 213.99L23.7959 213.419L21.3259 226.159L24.271 226.73L27.2162 227.301L29.6862 214.561L26.741 213.99ZM24.271 226.73V223.73H3.60104V226.73V229.73H24.271V226.73ZM3.60104 226.73L6.55173 227.272L21.3717 146.542L18.421 146L15.4703 145.458L0.650342 226.188L3.60104 226.73ZM18.421 146V149H51.441V146V143H18.421V146ZM51.441 146L48.4903 146.542L63.3103 227.272L66.261 226.73L69.2117 226.188L54.3917 145.458L51.441 146ZM39.611 198.78L42.5744 198.313L38.0244 169.453L35.061 169.92L32.0976 170.387L36.6476 199.247L39.611 198.78ZM35.061 169.92V166.92H34.151V169.92V172.92H35.061V169.92ZM34.151 169.92L31.1876 169.453L26.6376 198.313L29.601 198.78L32.5644 199.247L37.1144 170.387L34.151 169.92ZM29.601 198.78V201.78H39.611V198.78V195.78H29.601V198.78ZM108.257 206.32L105.915 204.446L105.906 204.456L105.898 204.467L108.257 206.32ZM109.817 146V143H106.817V146H109.817ZM132.177 146H135.177V143H132.177V146ZM124.507 221.66L122.59 219.352L122.581 219.36L122.571 219.368L124.507 221.66ZM80.1771 221.79L78.1815 224.03L78.2029 224.049L78.2248 224.068L80.1771 221.79ZM73.0271 146V143H70.0271V146H73.0271ZM95.7771 146H98.7771V143H95.7771V146ZM95.7771 200.21H92.7771C92.7771 203.232 93.3977 206.075 95.2001 208.155L97.4671 206.19L99.7342 204.225C99.2832 203.705 98.7771 202.561 98.7771 200.21H95.7771ZM97.4671 206.19L95.2001 208.155C97.119 210.369 99.9535 211.14 102.927 211.14V208.14V205.14C100.874 205.14 100.069 204.611 99.7342 204.225L97.4671 206.19ZM102.927 208.14V211.14C105.831 211.14 108.799 210.486 110.616 208.173L108.257 206.32L105.898 204.467C105.809 204.58 105.223 205.14 102.927 205.14V208.14ZM108.257 206.32L110.6 208.194C112.277 206.097 112.817 203.179 112.817 200.08H109.817H106.817C106.817 202.701 106.317 203.943 105.915 204.446L108.257 206.32ZM109.817 200.08H112.817V146H109.817H106.817V200.08H109.817ZM109.817 146V149H132.177V146V143H109.817V146ZM132.177 146H129.177V201.38H132.177H135.177V146H132.177ZM132.177 201.38H129.177C129.177 210.13 126.777 215.875 122.59 219.352L124.507 221.66L126.424 223.968C132.464 218.951 135.177 211.176 135.177 201.38H132.177ZM124.507 221.66L122.571 219.368C118.3 222.977 111.661 225.03 102.147 225.03V228.03V231.03C112.393 231.03 120.661 228.837 126.443 223.952L124.507 221.66ZM102.147 228.03V225.03C92.7047 225.03 86.2145 223.014 82.1295 219.512L80.1771 221.79L78.2248 224.068C83.8465 228.886 92.0029 231.03 102.147 231.03V228.03ZM80.1771 221.79L82.1727 219.55C78.2847 216.086 76.0271 210.355 76.0271 201.64H73.0271H70.0271C70.0271 211.298 72.5362 219.001 78.1815 224.03L80.1771 221.79ZM73.0271 201.64H76.0271V146H73.0271H70.0271V201.64H73.0271ZM73.0271 146V149H95.7771V146V143H73.0271V146ZM95.7771 146H92.7771V200.21H95.7771H98.7771V146H95.7771ZM190.543 165.63V168.63H193.351L193.537 165.828L190.543 165.63ZM175.463 165.63V162.63H172.463V165.63H175.463ZM175.463 226.73V229.73H178.463V226.73H175.463ZM153.233 226.73H150.233V229.73H153.233V226.73ZM153.233 165.63H156.233V162.63H153.233V165.63ZM137.243 165.63L134.25 165.432L134.038 168.63H137.243V165.63ZM138.543 146V143H135.735L135.55 145.802L138.543 146ZM191.843 146L194.837 146.198L195.048 143H191.843V146ZM190.543 165.63V162.63H175.463V165.63V168.63H190.543V165.63ZM175.463 165.63H172.463V226.73H175.463H178.463V165.63H175.463ZM175.463 226.73V223.73H153.233V226.73V229.73H175.463V226.73ZM153.233 226.73H156.233V165.63H153.233H150.233V226.73H153.233ZM153.233 165.63V162.63H137.243V165.63V168.63H153.233V165.63ZM137.243 165.63L140.237 165.828L141.537 146.198L138.543 146L135.55 145.802L134.25 165.432L137.243 165.63ZM138.543 146V149H191.843V146V143H138.543V146ZM191.843 146L188.85 145.802L187.55 165.432L190.543 165.63L193.537 165.828L194.837 146.198L191.843 146ZM201.743 154.45L199.37 152.615L199.363 152.625L199.355 152.635L201.743 154.45ZM250.623 154.32L248.231 156.13L248.239 156.141L248.247 156.151L250.623 154.32ZM250.493 217.63L252.922 219.391V219.391L250.493 217.63ZM201.743 217.76L199.311 219.515V219.515L201.743 217.76ZM233.723 169.53L230.962 170.702L230.983 170.753L231.007 170.803L233.723 169.53ZM218.643 169.53L221.423 170.659L221.429 170.644L221.435 170.63L218.643 169.53ZM218.773 205.28L216.039 206.515L216.064 206.569L216.09 206.622L218.773 205.28ZM233.983 205.41L236.721 206.637V206.637L233.983 205.41ZM201.743 154.45L204.117 156.285C208.378 150.774 215.511 147.7 226.313 147.7V144.7V141.7C214.409 141.7 205.162 145.126 199.37 152.615L201.743 154.45ZM226.313 144.7V147.7C237.137 147.7 244.153 150.742 248.231 156.13L250.623 154.32L253.016 152.51C247.387 145.071 238.196 141.7 226.313 141.7V144.7ZM250.623 154.32L248.247 156.151C252.57 161.764 255.033 171.377 255.033 185.65H258.033H261.033C261.033 170.976 258.556 159.703 253 152.489L250.623 154.32ZM258.033 185.65H255.033C255.033 199.793 252.543 209.692 248.065 215.869L250.493 217.63L252.922 219.391C258.497 211.702 261.033 200.281 261.033 185.65H258.033ZM250.493 217.63L248.065 215.869C243.773 221.789 236.691 225.03 226.053 225.03V228.03V231.03C237.949 231.03 247.161 227.338 252.922 219.391L250.493 217.63ZM226.053 228.03V225.03C215.399 225.03 208.374 221.822 204.176 216.005L201.743 217.76L199.311 219.515C204.993 227.391 214.175 231.03 226.053 231.03V228.03ZM201.743 217.76L204.176 216.005C199.784 209.918 197.333 200.065 197.333 185.91H194.333H191.333C191.333 200.529 193.822 211.909 199.311 219.515L201.743 217.76ZM194.333 185.91H197.333C197.333 171.643 199.794 161.973 204.132 156.265L201.743 154.45L199.355 152.635C193.813 159.927 191.333 171.23 191.333 185.91H194.333ZM235.673 185.65H238.673C238.673 181.594 238.509 178.127 238.164 175.28C237.826 172.48 237.291 170.072 236.44 168.257L233.723 169.53L231.007 170.803C231.456 171.761 231.896 173.427 232.208 176C232.513 178.526 232.673 181.733 232.673 185.65H235.673ZM233.723 169.53L236.485 168.358C235.635 166.355 234.256 164.755 232.36 163.694C230.51 162.66 228.352 162.24 226.053 162.24V165.24V168.24C227.655 168.24 228.725 168.535 229.431 168.931C230.092 169.3 230.598 169.845 230.962 170.702L233.723 169.53ZM226.053 165.24V162.24C223.79 162.24 221.658 162.662 219.838 163.716C217.97 164.797 216.643 166.422 215.852 168.43L218.643 169.53L221.435 170.63C221.77 169.778 222.241 169.258 222.844 168.909C223.494 168.533 224.503 168.24 226.053 168.24V165.24ZM218.643 169.53L215.864 168.401C215.143 170.176 214.684 172.531 214.393 175.292C214.096 178.098 213.953 181.515 213.953 185.52H216.953H219.953C219.953 181.638 220.092 178.447 220.359 175.923C220.631 173.354 221.017 171.657 221.423 170.659L218.643 169.53ZM216.953 185.52H213.953V188.64H216.953H219.953V185.52H216.953ZM216.953 188.64H213.953C213.953 192.904 214.107 196.51 214.426 199.431C214.739 202.291 215.234 204.731 216.039 206.515L218.773 205.28L221.507 204.045C221.1 203.143 220.684 201.466 220.391 198.779C220.103 196.153 219.953 192.783 219.953 188.64H216.953ZM218.773 205.28L216.09 206.622C218.061 210.564 221.911 212.18 226.443 212.18V209.18V206.18C223.349 206.18 222.086 205.196 221.457 203.938L218.773 205.28ZM226.443 209.18V212.18C230.952 212.18 234.913 210.67 236.721 206.637L233.983 205.41L231.246 204.183C230.8 205.177 229.735 206.18 226.443 206.18V209.18ZM233.983 205.41L236.721 206.637C237.481 204.941 237.943 202.633 238.233 199.948C238.531 197.202 238.673 193.813 238.673 189.81H235.673H232.673C232.673 193.694 232.534 196.848 232.268 199.302C231.996 201.817 231.612 203.366 231.246 204.183L233.983 205.41ZM235.673 189.81H238.673V185.65H235.673H232.673V189.81H235.673ZM270.005 151.72L272.166 153.801V153.801L270.005 151.72ZM312.645 147.04L315.621 147.412L315.971 144.617L313.203 144.092L312.645 147.04ZM310.045 167.84L309.366 170.762L312.608 171.516L313.021 168.212L310.045 167.84ZM289.115 173.56L287.504 176.091L287.529 176.107L287.555 176.123L289.115 173.56ZM296.265 177.46L294.923 180.143L294.957 180.16L294.991 180.176L296.265 177.46ZM304.585 182.27L302.885 184.742L302.912 184.76L302.939 184.778L304.585 182.27ZM311.605 190.2L308.976 191.646L308.99 191.671L309.004 191.695L311.605 190.2ZM307.965 221.27L305.823 219.169V219.169L307.965 221.27ZM265.455 224.26L262.463 224.039L262.29 226.384L264.525 227.112L265.455 224.26ZM266.885 204.89L267.719 202.008L264.165 200.979L263.893 204.669L266.885 204.89ZM288.725 199.56L286.96 201.986L286.986 202.005L287.011 202.023L288.725 199.56ZM281.705 195.4L283.046 192.717V192.717L281.705 195.4ZM273.255 190.59L271.609 193.098L271.626 193.11L271.644 193.121L273.255 190.59ZM266.105 182.66L263.476 184.106L263.49 184.131L263.504 184.155L266.105 182.66ZM263.245 170.31H266.245C266.245 163.218 268.296 157.819 272.166 153.801L270.005 151.72L267.844 149.639C262.7 154.981 260.245 161.976 260.245 170.31H263.245ZM270.005 151.72L272.166 153.801C275.995 149.824 281.304 147.7 288.465 147.7V144.7V141.7C280.025 141.7 273.027 144.256 267.844 149.639L270.005 151.72ZM288.465 144.7V147.7C296.153 147.7 304.025 148.46 312.086 149.988L312.645 147.04L313.203 144.092C304.797 142.5 296.55 141.7 288.465 141.7V144.7ZM312.645 147.04L309.668 146.668L307.068 167.468L310.045 167.84L313.021 168.212L315.621 147.412L312.645 147.04ZM310.045 167.84L310.723 164.918C302.179 162.933 295.965 161.85 292.365 161.85V164.85V167.85C295.178 167.85 300.75 168.761 309.366 170.762L310.045 167.84ZM292.365 164.85V161.85C290.002 161.85 287.673 162.315 285.896 163.752C283.996 165.288 283.255 167.492 283.255 169.79H286.255H289.255C289.255 168.795 289.531 168.529 289.668 168.418C289.927 168.208 290.654 167.85 292.365 167.85V164.85ZM286.255 169.79H283.255C283.255 172.694 285.371 174.734 287.504 176.091L289.115 173.56L290.725 171.029C289.953 170.538 289.55 170.145 289.36 169.894C289.192 169.673 289.255 169.655 289.255 169.79H286.255ZM289.115 173.56L287.555 176.123C289.638 177.391 292.098 178.731 294.923 180.143L296.265 177.46L297.606 174.777C294.885 173.416 292.578 172.156 290.674 170.997L289.115 173.56ZM296.265 177.46L294.991 180.176C297.602 181.4 300.234 182.919 302.885 184.742L304.585 182.27L306.284 179.798C303.389 177.807 300.473 176.12 297.538 174.744L296.265 177.46ZM304.585 182.27L302.939 184.778C305.231 186.282 307.26 188.526 308.976 191.646L311.605 190.2L314.233 188.754C312.136 184.941 309.485 181.898 306.231 179.762L304.585 182.27ZM311.605 190.2L309.004 191.695C310.704 194.652 311.595 198.11 311.595 202.16H314.595H317.595C317.595 197.196 316.492 192.682 314.205 188.705L311.605 190.2ZM314.595 202.16H311.595C311.595 209.856 309.54 215.379 305.823 219.169L307.965 221.27L310.106 223.371C315.229 218.148 317.595 210.931 317.595 202.16H314.595ZM307.965 221.27L305.823 219.169C302.118 222.946 296.701 225.03 289.115 225.03V228.03V231.03C297.822 231.03 304.971 228.607 310.106 223.371L307.965 221.27ZM289.115 228.03V225.03C281.372 225.03 273.799 223.824 266.384 221.408L265.455 224.26L264.525 227.112C272.537 229.723 280.737 231.03 289.115 231.03V228.03ZM265.455 224.26L268.446 224.481L269.876 205.111L266.885 204.89L263.893 204.669L262.463 224.039L265.455 224.26ZM266.885 204.89L266.05 207.771C275.289 210.448 282.132 211.92 286.255 211.92V208.92V205.92C283.097 205.92 277.026 204.705 267.719 202.008L266.885 204.89ZM286.255 208.92V211.92C288.45 211.92 290.657 211.445 292.333 209.969C294.081 208.428 294.715 206.281 294.715 204.11H291.715H288.715C288.715 205.145 288.438 205.403 288.366 205.466C288.222 205.594 287.699 205.92 286.255 205.92V208.92ZM291.715 204.11H294.715C294.715 201.074 292.832 198.763 290.438 197.097L288.725 199.56L287.011 202.023C288.603 203.13 288.715 203.852 288.715 204.11H291.715ZM288.725 199.56L290.489 197.134C288.415 195.625 285.924 194.156 283.046 192.717L281.705 195.4L280.363 198.083C283.032 199.418 285.221 200.721 286.96 201.986L288.725 199.56ZM281.705 195.4L283.046 192.717C280.373 191.38 277.646 189.829 274.865 188.059L273.255 190.59L271.644 193.121C274.583 194.991 277.489 196.646 280.363 198.083L281.705 195.4ZM273.255 190.59L274.901 188.082C272.593 186.568 270.512 184.306 268.705 181.165L266.105 182.66L263.504 184.155C265.684 187.947 268.369 190.972 271.609 193.098L273.255 190.59ZM266.105 182.66L268.733 181.214C267.115 178.273 266.245 174.674 266.245 170.31H263.245H260.245C260.245 175.479 261.28 180.114 263.476 184.106L266.105 182.66Z" fill="white" mask="url(#path-1-outside-1_224_493)"/>
</svg>
