<svg width="1033" height="199" viewBox="0 0 1033 199" fill="none" xmlns="http://www.w3.org/2000/svg">
<mask id="path-1-outside-1_224_45" maskUnits="userSpaceOnUse" x="-0.799316" y="-0.700195" width="1034" height="199" fill="black">
<rect fill="white" x="-0.799316" y="-0.700195" width="1034" height="199"/>
<path d="M148.201 192.3H98.1007L92.4007 162.9H57.0007L51.3007 192.3H3.60068L37.8007 5.99979H114.001L148.201 192.3ZM86.7007 127.8L76.2007 61.1998H74.1007L63.6007 127.8H86.7007ZM227.715 192.3H177.615V53.6998H156.015V22.1998L186.615 5.99979H227.715V192.3ZM456.697 192.3H406.597L400.897 162.9H365.497L359.797 192.3H312.097L346.297 5.99979H422.497L456.697 192.3ZM395.197 127.8L384.697 61.1998H382.597L372.097 127.8H395.197ZM524.811 131.1C524.811 137.3 526.111 141.9 528.711 144.9C531.311 147.9 535.511 149.4 541.311 149.4C547.311 149.4 551.411 148 553.611 145.2C556.011 142.2 557.211 137.4 557.211 130.8V5.99979H608.811V133.8C608.811 155.2 602.911 170.8 591.111 180.6C579.511 190.4 562.311 195.3 539.511 195.3C516.911 195.3 500.011 190.5 488.811 180.9C477.811 171.1 472.311 155.6 472.311 134.4V5.99979H524.811V131.1ZM743.501 51.2998H708.701V192.3H657.401V51.2998H620.501L623.501 5.99979H746.501L743.501 51.2998ZM769.348 25.4998C780.948 10.4998 799.848 2.99979 826.048 2.99979C852.248 2.99979 870.948 10.3998 882.148 25.1998C893.548 39.9998 899.248 64.0998 899.248 97.4998C899.248 130.7 893.448 155.3 881.848 171.3C870.248 187.3 851.448 195.3 825.448 195.3C799.448 195.3 780.748 187.4 769.348 171.6C757.948 155.8 752.248 131.3 752.248 98.0998C752.248 64.6998 757.948 40.4998 769.348 25.4998ZM847.648 97.4998C847.648 79.0998 846.148 66.6998 843.148 60.2998C840.348 53.6998 834.448 50.3998 825.448 50.3998C816.648 50.3998 810.948 53.6998 808.348 60.2998C805.748 66.6998 804.448 78.9998 804.448 97.1998V104.4C804.448 123.8 805.848 136.6 808.648 142.8C811.648 148.8 817.548 151.8 826.348 151.8C835.348 151.8 841.148 148.9 843.748 143.1C846.348 137.3 847.648 125.3 847.648 107.1V97.4998ZM911.274 62.0998C911.274 44.2998 916.474 29.9998 926.874 19.1998C937.274 8.39979 951.474 2.99979 969.474 2.99979C987.674 2.99979 1006.27 4.79979 1025.27 8.39979L1019.27 56.3998C999.474 51.7998 985.874 49.4998 978.474 49.4998C969.074 49.4998 964.374 53.2998 964.374 60.8998C964.374 63.8998 966.574 66.7998 970.974 69.5998C975.574 72.3998 981.074 75.3998 987.474 78.5998C993.874 81.5998 1000.27 85.2998 1006.67 89.6998C1013.07 93.8998 1018.47 99.9998 1022.87 108C1027.47 116 1029.77 125.2 1029.77 135.6C1029.77 154.6 1024.67 169.3 1014.47 179.7C1004.27 190.1 989.774 195.3 970.974 195.3C952.374 195.3 934.174 192.4 916.374 186.6L919.674 141.9C941.074 148.1 955.974 151.2 964.374 151.2C972.774 151.2 976.974 147.5 976.974 140.1C976.974 136.3 974.674 132.8 970.074 129.6C965.674 126.4 960.274 123.2 953.874 120C947.474 116.8 940.974 113.1 934.374 108.9C927.974 104.7 922.474 98.5998 917.874 90.5998C913.474 82.5998 911.274 73.0998 911.274 62.0998Z"/>
</mask>
<path d="M148.201 192.3V195.3H151.802L151.151 191.758L148.201 192.3ZM98.1007 192.3L95.1555 192.871L95.6265 195.3H98.1007V192.3ZM92.4007 162.9L95.3458 162.329L94.8749 159.9H92.4007V162.9ZM57.0007 162.9V159.9H54.5265L54.0555 162.329L57.0007 162.9ZM51.3007 192.3V195.3H53.7749L54.2458 192.871L51.3007 192.3ZM3.60068 192.3L0.649991 191.758L-0.000171661 195.3H3.60068V192.3ZM37.8007 5.99979V2.99979H35.3013L34.85 5.45811L37.8007 5.99979ZM114.001 5.99979L116.951 5.45811L116.5 2.99979H114.001V5.99979ZM86.7007 127.8V130.8H90.2107L89.6641 127.333L86.7007 127.8ZM76.2007 61.1998L79.1641 60.7326L78.7648 58.1998H76.2007V61.1998ZM74.1007 61.1998V58.1998H71.5366L71.1373 60.7326L74.1007 61.1998ZM63.6007 127.8L60.6373 127.333L60.0907 130.8H63.6007V127.8ZM148.201 192.3V189.3H98.1007V192.3V195.3H148.201V192.3ZM98.1007 192.3L101.046 191.729L95.3458 162.329L92.4007 162.9L89.4555 163.471L95.1555 192.871L98.1007 192.3ZM92.4007 162.9V159.9H57.0007V162.9V165.9H92.4007V162.9ZM57.0007 162.9L54.0555 162.329L48.3555 191.729L51.3007 192.3L54.2458 192.871L59.9458 163.471L57.0007 162.9ZM51.3007 192.3V189.3H3.60068V192.3V195.3H51.3007V192.3ZM3.60068 192.3L6.55138 192.841L40.7514 6.54146L37.8007 5.99979L34.85 5.45811L0.649991 191.758L3.60068 192.3ZM37.8007 5.99979V8.99979H114.001V5.99979V2.99979H37.8007V5.99979ZM114.001 5.99979L111.05 6.54146L145.25 192.841L148.201 192.3L151.151 191.758L116.951 5.45811L114.001 5.99979ZM86.7007 127.8L89.6641 127.333L79.1641 60.7326L76.2007 61.1998L73.2373 61.667L83.7373 128.267L86.7007 127.8ZM76.2007 61.1998V58.1998H74.1007V61.1998V64.1998H76.2007V61.1998ZM74.1007 61.1998L71.1373 60.7326L60.6373 127.333L63.6007 127.8L66.5641 128.267L77.0641 61.667L74.1007 61.1998ZM63.6007 127.8V130.8H86.7007V127.8V124.8H63.6007V127.8ZM227.715 192.3V195.3H230.715V192.3H227.715ZM177.615 192.3H174.615V195.3H177.615V192.3ZM177.615 53.6998H180.615V50.6998H177.615V53.6998ZM156.015 53.6998H153.015V56.6998H156.015V53.6998ZM156.015 22.1998L154.611 19.5484L153.015 20.3936V22.1998H156.015ZM186.615 5.99979V2.99979H185.87L185.211 3.34842L186.615 5.99979ZM227.715 5.99979H230.715V2.99979H227.715V5.99979ZM227.715 192.3V189.3H177.615V192.3V195.3H227.715V192.3ZM177.615 192.3H180.615V53.6998H177.615H174.615V192.3H177.615ZM177.615 53.6998V50.6998H156.015V53.6998V56.6998H177.615V53.6998ZM156.015 53.6998H159.015V22.1998H156.015H153.015V53.6998H156.015ZM156.015 22.1998L157.418 24.8512L188.018 8.65115L186.615 5.99979L185.211 3.34842L154.611 19.5484L156.015 22.1998ZM186.615 5.99979V8.99979H227.715V5.99979V2.99979H186.615V5.99979ZM227.715 5.99979H224.715V192.3H227.715H230.715V5.99979H227.715ZM456.697 192.3V195.3H460.298L459.647 191.758L456.697 192.3ZM406.597 192.3L403.652 192.871L404.123 195.3H406.597V192.3ZM400.897 162.9L403.842 162.329L403.371 159.9H400.897V162.9ZM365.497 162.9V159.9H363.023L362.552 162.329L365.497 162.9ZM359.797 192.3V195.3H362.271L362.742 192.871L359.797 192.3ZM312.097 192.3L309.146 191.758L308.496 195.3H312.097V192.3ZM346.297 5.99979V2.99979H343.797L343.346 5.45811L346.297 5.99979ZM422.497 5.99979L425.447 5.45811L424.996 2.99979H422.497V5.99979ZM395.197 127.8V130.8H398.707L398.16 127.333L395.197 127.8ZM384.697 61.1998L387.66 60.7326L387.261 58.1998H384.697V61.1998ZM382.597 61.1998V58.1998H380.033L379.633 60.7326L382.597 61.1998ZM372.097 127.8L369.133 127.333L368.587 130.8H372.097V127.8ZM456.697 192.3V189.3H406.597V192.3V195.3H456.697V192.3ZM406.597 192.3L409.542 191.729L403.842 162.329L400.897 162.9L397.952 163.471L403.652 192.871L406.597 192.3ZM400.897 162.9V159.9H365.497V162.9V165.9H400.897V162.9ZM365.497 162.9L362.552 162.329L356.852 191.729L359.797 192.3L362.742 192.871L368.442 163.471L365.497 162.9ZM359.797 192.3V189.3H312.097V192.3V195.3H359.797V192.3ZM312.097 192.3L315.047 192.841L349.247 6.54146L346.297 5.99979L343.346 5.45811L309.146 191.758L312.097 192.3ZM346.297 5.99979V8.99979H422.497V5.99979V2.99979H346.297V5.99979ZM422.497 5.99979L419.546 6.54146L453.746 192.841L456.697 192.3L459.647 191.758L425.447 5.45811L422.497 5.99979ZM395.197 127.8L398.16 127.333L387.66 60.7326L384.697 61.1998L381.733 61.667L392.233 128.267L395.197 127.8ZM384.697 61.1998V58.1998H382.597V61.1998V64.1998H384.697V61.1998ZM382.597 61.1998L379.633 60.7326L369.133 127.333L372.097 127.8L375.06 128.267L385.56 61.667L382.597 61.1998ZM372.097 127.8V130.8H395.197V127.8V124.8H372.097V127.8ZM553.611 145.2L551.268 143.326L551.26 143.336L551.252 143.346L553.611 145.2ZM557.211 5.99979V2.99979H554.211V5.99979H557.211ZM608.811 5.99979H611.811V2.99979H608.811V5.99979ZM591.111 180.6L589.194 178.292L589.184 178.3L589.175 178.308L591.111 180.6ZM488.811 180.9L486.815 183.14L486.837 183.159L486.858 183.178L488.811 180.9ZM472.311 5.99979V2.99979H469.311V5.99979H472.311ZM524.811 5.99979H527.811V2.99979H524.811V5.99979ZM524.811 131.1H521.811C521.811 137.635 523.168 143.085 526.444 146.865L528.711 144.9L530.978 142.935C529.054 140.715 527.811 136.964 527.811 131.1H524.811ZM528.711 144.9L526.444 146.865C529.836 150.779 535.051 152.4 541.311 152.4V149.4V146.4C535.971 146.4 532.786 145.021 530.978 142.935L528.711 144.9ZM541.311 149.4V152.4C547.615 152.4 552.906 150.953 555.97 147.053L553.611 145.2L551.252 143.346C549.916 145.047 547.007 146.4 541.311 146.4V149.4ZM553.611 145.2L555.953 147.074C558.991 143.277 560.211 137.638 560.211 130.8H557.211H554.211C554.211 137.161 553.031 141.123 551.268 143.326L553.611 145.2ZM557.211 130.8H560.211V5.99979H557.211H554.211V130.8H557.211ZM557.211 5.99979V8.99979H608.811V5.99979V2.99979H557.211V5.99979ZM608.811 5.99979H605.811V133.8H608.811H611.811V5.99979H608.811ZM608.811 133.8H605.811C605.811 154.677 600.067 169.262 589.194 178.292L591.111 180.6L593.028 182.908C605.755 172.338 611.811 155.723 611.811 133.8H608.811ZM591.111 180.6L589.175 178.308C578.33 187.47 561.945 192.3 539.511 192.3V195.3V198.3C562.677 198.3 580.691 193.33 593.047 182.891L591.111 180.6ZM539.511 195.3V192.3C517.262 192.3 501.195 187.563 490.763 178.622L488.811 180.9L486.858 183.178C498.827 193.436 516.56 198.3 539.511 198.3V195.3ZM488.811 180.9L490.806 178.66C480.685 169.643 475.311 155.128 475.311 134.4H472.311H469.311C469.311 156.071 474.937 172.557 486.815 183.14L488.811 180.9ZM472.311 134.4H475.311V5.99979H472.311H469.311V134.4H472.311ZM472.311 5.99979V8.99979H524.811V5.99979V2.99979H472.311V5.99979ZM524.811 5.99979H521.811V131.1H524.811H527.811V5.99979H524.811ZM743.501 51.2998V54.2998H746.309L746.495 51.498L743.501 51.2998ZM708.701 51.2998V48.2998H705.701V51.2998H708.701ZM708.701 192.3V195.3H711.701V192.3H708.701ZM657.401 192.3H654.401V195.3H657.401V192.3ZM657.401 51.2998H660.401V48.2998H657.401V51.2998ZM620.501 51.2998L617.508 51.1015L617.296 54.2998H620.501V51.2998ZM623.501 5.99979V2.99979H620.694L620.508 5.80154L623.501 5.99979ZM746.501 5.99979L749.495 6.19803L749.707 2.99979H746.501V5.99979ZM743.501 51.2998V48.2998H708.701V51.2998V54.2998H743.501V51.2998ZM708.701 51.2998H705.701V192.3H708.701H711.701V51.2998H708.701ZM708.701 192.3V189.3H657.401V192.3V195.3H708.701V192.3ZM657.401 192.3H660.401V51.2998H657.401H654.401V192.3H657.401ZM657.401 51.2998V48.2998H620.501V51.2998V54.2998H657.401V51.2998ZM620.501 51.2998L623.495 51.498L626.495 6.19803L623.501 5.99979L620.508 5.80154L617.508 51.1015L620.501 51.2998ZM623.501 5.99979V8.99979H746.501V5.99979V2.99979H623.501V5.99979ZM746.501 5.99979L743.508 5.80154L740.508 51.1016L743.501 51.2998L746.495 51.498L749.495 6.19803L746.501 5.99979ZM769.348 25.4998L766.975 23.6646L766.967 23.6745L766.96 23.6845L769.348 25.4998ZM882.148 25.1998L879.756 27.0101L879.764 27.0203L879.772 27.0305L882.148 25.1998ZM881.848 171.3L884.277 173.061V173.061L881.848 171.3ZM769.348 171.6L766.915 173.355V173.355L769.348 171.6ZM843.148 60.2998L840.387 61.4715L840.408 61.5227L840.432 61.5731L843.148 60.2998ZM808.348 60.2998L811.128 61.4289L811.134 61.4142L811.14 61.3994L808.348 60.2998ZM808.648 142.8L805.914 144.035L805.939 144.089L805.965 144.141L808.648 142.8ZM843.748 143.1L846.486 144.327V144.327L843.748 143.1ZM769.348 25.4998L771.721 27.335C782.557 13.324 800.4 5.99979 826.048 5.99979V2.99979V-0.000213623C799.297 -0.000213623 779.34 7.67561 766.975 23.6646L769.348 25.4998ZM826.048 2.99979V5.99979C851.719 5.99979 869.332 13.2351 879.756 27.0101L882.148 25.1998L884.541 23.3895C872.565 7.5645 852.778 -0.000213623 826.048 -0.000213623V2.99979ZM882.148 25.1998L879.772 27.0305C890.555 41.0304 896.248 64.3003 896.248 97.4998H899.248H902.248C902.248 63.8993 896.541 38.9692 884.525 23.3691L882.148 25.1998ZM899.248 97.4998H896.248C896.248 130.456 890.471 154.295 879.419 169.539L881.848 171.3L884.277 173.061C896.425 156.305 902.248 130.944 902.248 97.4998H899.248ZM881.848 171.3L879.419 169.539C868.554 184.526 850.82 192.3 825.448 192.3V195.3V198.3C852.077 198.3 871.943 190.074 884.277 173.061L881.848 171.3ZM825.448 195.3V192.3C800.06 192.3 782.439 184.616 771.781 169.844L769.348 171.6L766.915 173.355C779.058 190.184 798.836 198.3 825.448 198.3V195.3ZM769.348 171.6L771.781 169.844C760.929 154.804 755.248 131.068 755.248 98.0998H752.248H749.248C749.248 131.532 754.967 156.796 766.915 173.355L769.348 171.6ZM752.248 98.0998H755.248C755.248 64.906 760.939 41.5226 771.737 27.315L769.348 25.4998L766.96 23.6845C754.958 39.477 749.248 64.4936 749.248 98.0998H752.248ZM847.648 97.4998H850.648C850.648 88.23 850.271 80.4005 849.502 74.0395C848.738 67.7265 847.566 62.6553 845.865 59.0265L843.148 60.2998L840.432 61.5731C841.731 64.3443 842.809 68.6731 843.545 74.7601C844.276 80.799 844.648 88.3696 844.648 97.4998H847.648ZM843.148 60.2998L845.91 59.1281C844.267 55.2551 841.655 52.2519 838.088 50.2565C834.566 48.2868 830.297 47.3998 825.448 47.3998V50.3998V53.3998C829.599 53.3998 832.78 54.1628 835.159 55.4931C837.491 56.7977 839.23 58.7445 840.387 61.4715L843.148 60.2998ZM825.448 50.3998V47.3998C820.692 47.3998 816.505 48.2897 813.07 50.2785C809.588 52.2947 807.085 55.3221 805.557 59.2002L808.348 60.2998L811.14 61.3994C812.212 58.6775 813.859 56.7549 816.076 55.4711C818.341 54.1599 821.405 53.3998 825.448 53.3998V50.3998ZM808.348 60.2998L805.569 59.1707C804.111 62.7595 803.1 67.7633 802.44 74.0095C801.775 80.3004 801.448 88.0386 801.448 97.1998H804.448H807.448C807.448 88.161 807.772 80.6492 808.407 74.6401C809.047 68.5863 809.986 64.2401 811.128 61.4289L808.348 60.2998ZM804.448 97.1998H801.448V104.4H804.448H807.448V97.1998H804.448ZM804.448 104.4H801.448C801.448 114.16 801.8 122.328 802.516 128.876C803.226 135.362 804.315 140.494 805.914 144.035L808.648 142.8L811.382 141.565C810.182 138.906 809.171 134.537 808.481 128.224C807.797 121.971 807.448 114.039 807.448 104.4H804.448ZM808.648 142.8L805.965 144.141C809.636 151.484 816.829 154.8 826.348 154.8V151.8V148.8C818.268 148.8 813.661 146.116 811.332 141.458L808.648 142.8ZM826.348 151.8V154.8C835.957 154.8 843.205 151.646 846.486 144.327L843.748 143.1L841.011 141.873C839.092 146.153 834.74 148.8 826.348 148.8V151.8ZM843.748 143.1L846.486 144.327C847.983 140.987 848.997 136.158 849.656 130.073C850.322 123.926 850.648 116.259 850.648 107.1H847.648H844.648C844.648 116.14 844.325 123.573 843.691 129.427C843.05 135.342 842.114 139.412 841.011 141.873L843.748 143.1ZM847.648 107.1H850.648V97.4998H847.648H844.648V107.1H847.648ZM926.874 19.1998L929.035 21.2807V21.2807L926.874 19.1998ZM1025.27 8.3998L1028.25 8.7719L1028.6 5.97665L1025.83 5.45224L1025.27 8.3998ZM1019.27 56.3998L1018.6 59.322L1021.84 60.0753L1022.25 56.7719L1019.27 56.3998ZM970.974 69.5998L969.364 72.1308L969.389 72.1469L969.414 72.1624L970.974 69.5998ZM987.474 78.5998L986.133 81.2831L986.166 81.3001L986.201 81.3162L987.474 78.5998ZM1006.67 89.6998L1004.97 92.1719L1005 92.1902L1005.03 92.2079L1006.67 89.6998ZM1022.87 108L1020.25 109.446L1020.26 109.471L1020.27 109.495L1022.87 108ZM1014.47 179.7L1012.33 177.599V177.599L1014.47 179.7ZM916.374 186.6L913.382 186.379L913.209 188.724L915.445 189.452L916.374 186.6ZM919.674 141.9L920.509 139.018L916.955 137.989L916.682 141.679L919.674 141.9ZM970.074 129.6L968.31 132.026L968.335 132.045L968.361 132.063L970.074 129.6ZM953.874 120L955.216 117.317V117.317L953.874 120ZM934.374 108.9L932.728 111.408L932.746 111.419L932.763 111.431L934.374 108.9ZM917.874 90.5998L915.245 92.0456L915.259 92.0705L915.273 92.0952L917.874 90.5998ZM911.274 62.0998H914.274C914.274 44.9207 919.272 31.4192 929.035 21.2807L926.874 19.1998L924.713 17.1189C913.676 28.5804 908.274 43.6788 908.274 62.0998H911.274ZM926.874 19.1998L929.035 21.2807C938.758 11.1837 952.113 5.99979 969.474 5.99979V2.99979V-0.000213623C950.835 -0.000213623 935.79 5.61586 924.713 17.1189L926.874 19.1998ZM969.474 2.99979V5.99979C987.475 5.99979 1005.89 7.78008 1024.72 11.3474L1025.27 8.3998L1025.83 5.45224C1006.66 1.81952 987.873 -0.000213623 969.474 -0.000213623V2.99979ZM1025.27 8.3998L1022.3 8.02769L1016.3 56.0277L1019.27 56.3998L1022.25 56.7719L1028.25 8.7719L1025.27 8.3998ZM1019.27 56.3998L1019.95 53.4776C1000.19 48.8859 986.267 46.4998 978.474 46.4998V49.4998V52.4998C985.481 52.4998 998.76 54.7137 1018.6 59.322L1019.27 56.3998ZM978.474 49.4998V46.4998C973.448 46.4998 969.122 47.503 966.013 50.0169C962.782 52.6294 961.374 56.4486 961.374 60.8998H964.374H967.374C967.374 57.751 968.316 55.8702 969.785 54.6827C971.376 53.3966 974.1 52.4998 978.474 52.4998V49.4998ZM964.374 60.8998H961.374C961.374 65.5041 964.737 69.187 969.364 72.1308L970.974 69.5998L972.585 67.0688C968.411 64.4127 967.374 62.2955 967.374 60.8998H964.374ZM970.974 69.5998L969.414 72.1624C974.104 75.017 979.681 78.0572 986.133 81.2831L987.474 78.5998L988.816 75.9165C982.468 72.7425 977.044 69.7826 972.534 67.0372L970.974 69.5998ZM987.474 78.5998L986.201 81.3162C992.439 84.2401 998.697 87.8559 1004.97 92.1719L1006.67 89.6998L1008.37 87.2277C1001.85 82.7437 995.31 78.9595 988.747 75.8834L987.474 78.5998ZM1006.67 89.6998L1005.03 92.2079C1010.95 96.0921 1016.04 101.792 1020.25 109.446L1022.87 108L1025.5 106.554C1020.91 98.2074 1015.2 91.7075 1008.32 87.1917L1006.67 89.6998ZM1022.87 108L1020.27 109.495C1024.58 116.985 1026.77 125.657 1026.77 135.6H1029.77H1032.77C1032.77 124.743 1030.37 115.015 1025.47 106.504L1022.87 108ZM1029.77 135.6H1026.77C1026.77 154.062 1021.83 167.915 1012.33 177.599L1014.47 179.7L1016.62 181.8C1027.52 170.684 1032.77 155.137 1032.77 135.6H1029.77ZM1014.47 179.7L1012.33 177.599C1002.85 187.27 989.214 192.3 970.974 192.3V195.3V198.3C990.334 198.3 1005.7 192.93 1016.62 181.8L1014.47 179.7ZM970.974 195.3V192.3C952.692 192.3 934.805 189.45 917.304 183.747L916.374 186.6L915.445 189.452C933.543 195.349 952.056 198.3 970.974 198.3V195.3ZM916.374 186.6L919.366 186.821L922.666 142.121L919.674 141.9L916.682 141.679L913.382 186.379L916.374 186.6ZM919.674 141.9L918.839 144.781C940.206 150.972 955.491 154.2 964.374 154.2V151.2V148.2C956.457 148.2 941.943 145.228 920.509 139.018L919.674 141.9ZM964.374 151.2V154.2C968.95 154.2 972.942 153.2 975.807 150.676C978.745 148.087 979.974 144.368 979.974 140.1H976.974H973.974C973.974 143.232 973.103 145.062 971.841 146.174C970.507 147.349 968.199 148.2 964.374 148.2V151.2ZM976.974 140.1H979.974C979.974 134.911 976.789 130.616 971.787 127.137L970.074 129.6L968.361 132.063C972.56 134.983 973.974 137.689 973.974 140.1H976.974ZM970.074 129.6L971.839 127.174C967.271 123.852 961.72 120.569 955.216 117.317L953.874 120L952.532 122.683C958.828 125.831 964.077 128.948 968.31 132.026L970.074 129.6ZM953.874 120L955.216 117.317C948.916 114.167 942.506 110.519 935.985 106.369L934.374 108.9L932.763 111.431C939.443 115.681 946.032 119.433 952.532 122.683L953.874 120ZM934.374 108.9L936.02 106.392C930.086 102.497 924.888 96.7795 920.475 89.1044L917.874 90.5998L915.273 92.0952C920.06 100.42 925.862 106.902 932.728 111.408L934.374 108.9ZM917.874 90.5998L920.503 89.1541C916.392 81.6793 914.274 72.6974 914.274 62.0998H911.274H908.274C908.274 73.5022 910.557 83.5203 915.245 92.0456L917.874 90.5998Z" fill="white" mask="url(#path-1-outside-1_224_45)"/>
</svg>
