<svg width="1033" height="199" viewBox="0 0 1033 199" fill="none" xmlns="http://www.w3.org/2000/svg">
<mask id="path-1-outside-1_227_527" maskUnits="userSpaceOnUse" x="-0.799072" y="-0.700195" width="1034" height="199" fill="black">
<rect fill="white" x="-0.799072" y="-0.700195" width="1034" height="199"/>
<path d="M148.201 192.3H98.1009L92.4009 162.9H57.0009L51.3009 192.3H3.60093L37.8009 5.99979H114.001L148.201 192.3ZM86.7009 127.8L76.2009 61.1998H74.1009L63.6009 127.8H86.7009ZM227.715 192.3H177.615V53.6998H156.015V22.1998L186.615 5.99979H227.715V192.3ZM456.697 192.3H406.597L400.897 162.9H365.497L359.797 192.3H312.097L346.297 5.99979H422.497L456.697 192.3ZM395.197 127.8L384.697 61.1998H382.597L372.097 127.8H395.197ZM524.811 131.1C524.811 137.3 526.111 141.9 528.711 144.9C531.311 147.9 535.511 149.4 541.311 149.4C547.311 149.4 551.411 148 553.611 145.2C556.011 142.2 557.211 137.4 557.211 130.8V5.99979H608.811V133.8C608.811 155.2 602.911 170.8 591.111 180.6C579.511 190.4 562.311 195.3 539.511 195.3C516.911 195.3 500.011 190.5 488.811 180.9C477.811 171.1 472.311 155.6 472.311 134.4V5.99979H524.811V131.1ZM743.502 51.2998H708.702V192.3H657.402V51.2998H620.502L623.502 5.99979H746.502L743.502 51.2998ZM769.349 25.4998C780.949 10.4998 799.849 2.99979 826.049 2.99979C852.249 2.99979 870.949 10.3998 882.149 25.1998C893.549 39.9998 899.249 64.0998 899.249 97.4998C899.249 130.7 893.449 155.3 881.849 171.3C870.249 187.3 851.449 195.3 825.449 195.3C799.449 195.3 780.749 187.4 769.349 171.6C757.949 155.8 752.249 131.3 752.249 98.0998C752.249 64.6998 757.949 40.4998 769.349 25.4998ZM847.649 97.4998C847.649 79.0998 846.149 66.6998 843.149 60.2998C840.349 53.6998 834.449 50.3998 825.449 50.3998C816.649 50.3998 810.949 53.6998 808.349 60.2998C805.749 66.6998 804.449 78.9998 804.449 97.1998V104.4C804.449 123.8 805.849 136.6 808.649 142.8C811.649 148.8 817.549 151.8 826.349 151.8C835.349 151.8 841.149 148.9 843.749 143.1C846.349 137.3 847.649 125.3 847.649 107.1V97.4998ZM911.274 62.0998C911.274 44.2998 916.474 29.9998 926.874 19.1998C937.274 8.39979 951.474 2.99979 969.474 2.99979C987.674 2.99979 1006.27 4.79979 1025.27 8.39979L1019.27 56.3998C999.474 51.7998 985.874 49.4998 978.474 49.4998C969.074 49.4998 964.374 53.2998 964.374 60.8998C964.374 63.8998 966.574 66.7998 970.974 69.5998C975.574 72.3998 981.074 75.3998 987.474 78.5998C993.874 81.5998 1000.27 85.2998 1006.67 89.6998C1013.07 93.8998 1018.47 99.9998 1022.87 108C1027.47 116 1029.77 125.2 1029.77 135.6C1029.77 154.6 1024.67 169.3 1014.47 179.7C1004.27 190.1 989.774 195.3 970.974 195.3C952.374 195.3 934.174 192.4 916.374 186.6L919.674 141.9C941.074 148.1 955.974 151.2 964.374 151.2C972.774 151.2 976.974 147.5 976.974 140.1C976.974 136.3 974.674 132.8 970.074 129.6C965.674 126.4 960.274 123.2 953.874 120C947.474 116.8 940.974 113.1 934.374 108.9C927.974 104.7 922.474 98.5998 917.874 90.5998C913.474 82.5998 911.274 73.0998 911.274 62.0998Z"/>
</mask>
<path d="M148.201 192.3H98.1009L92.4009 162.9H57.0009L51.3009 192.3H3.60093L37.8009 5.99979H114.001L148.201 192.3ZM86.7009 127.8L76.2009 61.1998H74.1009L63.6009 127.8H86.7009ZM227.715 192.3H177.615V53.6998H156.015V22.1998L186.615 5.99979H227.715V192.3ZM456.697 192.3H406.597L400.897 162.9H365.497L359.797 192.3H312.097L346.297 5.99979H422.497L456.697 192.3ZM395.197 127.8L384.697 61.1998H382.597L372.097 127.8H395.197ZM524.811 131.1C524.811 137.3 526.111 141.9 528.711 144.9C531.311 147.9 535.511 149.4 541.311 149.4C547.311 149.4 551.411 148 553.611 145.2C556.011 142.2 557.211 137.4 557.211 130.8V5.99979H608.811V133.8C608.811 155.2 602.911 170.8 591.111 180.6C579.511 190.4 562.311 195.3 539.511 195.3C516.911 195.3 500.011 190.5 488.811 180.9C477.811 171.1 472.311 155.6 472.311 134.4V5.99979H524.811V131.1ZM743.502 51.2998H708.702V192.3H657.402V51.2998H620.502L623.502 5.99979H746.502L743.502 51.2998ZM769.349 25.4998C780.949 10.4998 799.849 2.99979 826.049 2.99979C852.249 2.99979 870.949 10.3998 882.149 25.1998C893.549 39.9998 899.249 64.0998 899.249 97.4998C899.249 130.7 893.449 155.3 881.849 171.3C870.249 187.3 851.449 195.3 825.449 195.3C799.449 195.3 780.749 187.4 769.349 171.6C757.949 155.8 752.249 131.3 752.249 98.0998C752.249 64.6998 757.949 40.4998 769.349 25.4998ZM847.649 97.4998C847.649 79.0998 846.149 66.6998 843.149 60.2998C840.349 53.6998 834.449 50.3998 825.449 50.3998C816.649 50.3998 810.949 53.6998 808.349 60.2998C805.749 66.6998 804.449 78.9998 804.449 97.1998V104.4C804.449 123.8 805.849 136.6 808.649 142.8C811.649 148.8 817.549 151.8 826.349 151.8C835.349 151.8 841.149 148.9 843.749 143.1C846.349 137.3 847.649 125.3 847.649 107.1V97.4998ZM911.274 62.0998C911.274 44.2998 916.474 29.9998 926.874 19.1998C937.274 8.39979 951.474 2.99979 969.474 2.99979C987.674 2.99979 1006.27 4.79979 1025.27 8.39979L1019.27 56.3998C999.474 51.7998 985.874 49.4998 978.474 49.4998C969.074 49.4998 964.374 53.2998 964.374 60.8998C964.374 63.8998 966.574 66.7998 970.974 69.5998C975.574 72.3998 981.074 75.3998 987.474 78.5998C993.874 81.5998 1000.27 85.2998 1006.67 89.6998C1013.07 93.8998 1018.47 99.9998 1022.87 108C1027.47 116 1029.77 125.2 1029.77 135.6C1029.77 154.6 1024.67 169.3 1014.47 179.7C1004.27 190.1 989.774 195.3 970.974 195.3C952.374 195.3 934.174 192.4 916.374 186.6L919.674 141.9C941.074 148.1 955.974 151.2 964.374 151.2C972.774 151.2 976.974 147.5 976.974 140.1C976.974 136.3 974.674 132.8 970.074 129.6C965.674 126.4 960.274 123.2 953.874 120C947.474 116.8 940.974 113.1 934.374 108.9C927.974 104.7 922.474 98.5998 917.874 90.5998C913.474 82.5998 911.274 73.0998 911.274 62.0998Z" fill="white"/>
<path d="M148.201 192.3V195.3H151.802L151.152 191.758L148.201 192.3ZM98.1009 192.3L95.1558 192.871L95.6267 195.3H98.1009V192.3ZM92.4009 162.9L95.3461 162.329L94.8752 159.9H92.4009V162.9ZM57.0009 162.9V159.9H54.5267L54.0558 162.329L57.0009 162.9ZM51.3009 192.3V195.3H53.7752L54.2461 192.871L51.3009 192.3ZM3.60093 192.3L0.650235 191.758L7.24792e-05 195.3H3.60093V192.3ZM37.8009 5.99979V2.99979H35.3015L34.8502 5.45811L37.8009 5.99979ZM114.001 5.99979L116.952 5.45811L116.5 2.99979H114.001V5.99979ZM86.7009 127.8V130.8H90.211L89.6643 127.333L86.7009 127.8ZM76.2009 61.1998L79.1643 60.7326L78.765 58.1998H76.2009V61.1998ZM74.1009 61.1998V58.1998H71.5368L71.1375 60.7326L74.1009 61.1998ZM63.6009 127.8L60.6375 127.333L60.0909 130.8H63.6009V127.8ZM148.201 192.3V189.3H98.1009V192.3V195.3H148.201V192.3ZM98.1009 192.3L101.046 191.729L95.3461 162.329L92.4009 162.9L89.4558 163.471L95.1558 192.871L98.1009 192.3ZM92.4009 162.9V159.9H57.0009V162.9V165.9H92.4009V162.9ZM57.0009 162.9L54.0558 162.329L48.3558 191.729L51.3009 192.3L54.2461 192.871L59.9461 163.471L57.0009 162.9ZM51.3009 192.3V189.3H3.60093V192.3V195.3H51.3009V192.3ZM3.60093 192.3L6.55162 192.841L40.7516 6.54146L37.8009 5.99979L34.8502 5.45811L0.650235 191.758L3.60093 192.3ZM37.8009 5.99979V8.99979H114.001V5.99979V2.99979H37.8009V5.99979ZM114.001 5.99979L111.05 6.54146L145.25 192.841L148.201 192.3L151.152 191.758L116.952 5.45811L114.001 5.99979ZM86.7009 127.8L89.6643 127.333L79.1643 60.7326L76.2009 61.1998L73.2375 61.667L83.7375 128.267L86.7009 127.8ZM76.2009 61.1998V58.1998H74.1009V61.1998V64.1998H76.2009V61.1998ZM74.1009 61.1998L71.1375 60.7326L60.6375 127.333L63.6009 127.8L66.5643 128.267L77.0643 61.667L74.1009 61.1998ZM63.6009 127.8V130.8H86.7009V127.8V124.8H63.6009V127.8ZM227.715 192.3V195.3H230.715V192.3H227.715ZM177.615 192.3H174.615V195.3H177.615V192.3ZM177.615 53.6998H180.615V50.6998H177.615V53.6998ZM156.015 53.6998H153.015V56.6998H156.015V53.6998ZM156.015 22.1998L154.611 19.5484L153.015 20.3936V22.1998H156.015ZM186.615 5.99979V2.99979H185.87L185.211 3.34842L186.615 5.99979ZM227.715 5.99979H230.715V2.99979H227.715V5.99979ZM227.715 192.3V189.3H177.615V192.3V195.3H227.715V192.3ZM177.615 192.3H180.615V53.6998H177.615H174.615V192.3H177.615ZM177.615 53.6998V50.6998H156.015V53.6998V56.6998H177.615V53.6998ZM156.015 53.6998H159.015V22.1998H156.015H153.015V53.6998H156.015ZM156.015 22.1998L157.419 24.8512L188.019 8.65115L186.615 5.99979L185.211 3.34842L154.611 19.5484L156.015 22.1998ZM186.615 5.99979V8.99979H227.715V5.99979V2.99979H186.615V5.99979ZM227.715 5.99979H224.715V192.3H227.715H230.715V5.99979H227.715ZM456.697 192.3V195.3H460.298L459.648 191.758L456.697 192.3ZM406.597 192.3L403.652 192.871L404.123 195.3H406.597V192.3ZM400.897 162.9L403.842 162.329L403.371 159.9H400.897V162.9ZM365.497 162.9V159.9H363.023L362.552 162.329L365.497 162.9ZM359.797 192.3V195.3H362.271L362.742 192.871L359.797 192.3ZM312.097 192.3L309.146 191.758L308.496 195.3H312.097V192.3ZM346.297 5.99979V2.99979H343.798L343.346 5.45811L346.297 5.99979ZM422.497 5.99979L425.448 5.45811L424.996 2.99979H422.497V5.99979ZM395.197 127.8V130.8H398.707L398.16 127.333L395.197 127.8ZM384.697 61.1998L387.66 60.7326L387.261 58.1998H384.697V61.1998ZM382.597 61.1998V58.1998H380.033L379.634 60.7326L382.597 61.1998ZM372.097 127.8L369.134 127.333L368.587 130.8H372.097V127.8ZM456.697 192.3V189.3H406.597V192.3V195.3H456.697V192.3ZM406.597 192.3L409.542 191.729L403.842 162.329L400.897 162.9L397.952 163.471L403.652 192.871L406.597 192.3ZM400.897 162.9V159.9H365.497V162.9V165.9H400.897V162.9ZM365.497 162.9L362.552 162.329L356.852 191.729L359.797 192.3L362.742 192.871L368.442 163.471L365.497 162.9ZM359.797 192.3V189.3H312.097V192.3V195.3H359.797V192.3ZM312.097 192.3L315.048 192.841L349.248 6.54146L346.297 5.99979L343.346 5.45811L309.146 191.758L312.097 192.3ZM346.297 5.99979V8.99979H422.497V5.99979V2.99979H346.297V5.99979ZM422.497 5.99979L419.546 6.54146L453.746 192.841L456.697 192.3L459.648 191.758L425.448 5.45811L422.497 5.99979ZM395.197 127.8L398.16 127.333L387.66 60.7326L384.697 61.1998L381.734 61.667L392.234 128.267L395.197 127.8ZM384.697 61.1998V58.1998H382.597V61.1998V64.1998H384.697V61.1998ZM382.597 61.1998L379.634 60.7326L369.134 127.333L372.097 127.8L375.06 128.267L385.56 61.667L382.597 61.1998ZM372.097 127.8V130.8H395.197V127.8V124.8H372.097V127.8ZM553.611 145.2L551.268 143.326L551.26 143.336L551.252 143.346L553.611 145.2ZM557.211 5.99979V2.99979H554.211V5.99979H557.211ZM608.811 5.99979H611.811V2.99979H608.811V5.99979ZM591.111 180.6L589.194 178.292L589.185 178.3L589.175 178.308L591.111 180.6ZM488.811 180.9L486.815 183.14L486.837 183.159L486.859 183.178L488.811 180.9ZM472.311 5.99979V2.99979H469.311V5.99979H472.311ZM524.811 5.99979H527.811V2.99979H524.811V5.99979ZM524.811 131.1H521.811C521.811 137.635 523.168 143.085 526.444 146.865L528.711 144.9L530.978 142.935C529.054 140.715 527.811 136.964 527.811 131.1H524.811ZM528.711 144.9L526.444 146.865C529.836 150.779 535.051 152.4 541.311 152.4V149.4V146.4C535.971 146.4 532.786 145.021 530.978 142.935L528.711 144.9ZM541.311 149.4V152.4C547.615 152.4 552.906 150.953 555.97 147.053L553.611 145.2L551.252 143.346C549.916 145.047 547.007 146.4 541.311 146.4V149.4ZM553.611 145.2L555.954 147.074C558.991 143.277 560.211 137.638 560.211 130.8H557.211H554.211C554.211 137.161 553.031 141.123 551.268 143.326L553.611 145.2ZM557.211 130.8H560.211V5.99979H557.211H554.211V130.8H557.211ZM557.211 5.99979V8.99979H608.811V5.99979V2.99979H557.211V5.99979ZM608.811 5.99979H605.811V133.8H608.811H611.811V5.99979H608.811ZM608.811 133.8H605.811C605.811 154.677 600.067 169.262 589.194 178.292L591.111 180.6L593.028 182.908C605.755 172.338 611.811 155.723 611.811 133.8H608.811ZM591.111 180.6L589.175 178.308C578.331 187.47 561.945 192.3 539.511 192.3V195.3V198.3C562.677 198.3 580.692 193.33 593.047 182.891L591.111 180.6ZM539.511 195.3V192.3C517.262 192.3 501.195 187.563 490.763 178.622L488.811 180.9L486.859 183.178C498.827 193.436 516.56 198.3 539.511 198.3V195.3ZM488.811 180.9L490.807 178.66C480.685 169.643 475.311 155.128 475.311 134.4H472.311H469.311C469.311 156.071 474.937 172.557 486.815 183.14L488.811 180.9ZM472.311 134.4H475.311V5.99979H472.311H469.311V134.4H472.311ZM472.311 5.99979V8.99979H524.811V5.99979V2.99979H472.311V5.99979ZM524.811 5.99979H521.811V131.1H524.811H527.811V5.99979H524.811ZM743.502 51.2998V54.2998H746.31L746.495 51.498L743.502 51.2998ZM708.702 51.2998V48.2998H705.702V51.2998H708.702ZM708.702 192.3V195.3H711.702V192.3H708.702ZM657.402 192.3H654.402V195.3H657.402V192.3ZM657.402 51.2998H660.402V48.2998H657.402V51.2998ZM620.502 51.2998L617.508 51.1015L617.296 54.2998H620.502V51.2998ZM623.502 5.99979V2.99979H620.694L620.508 5.80154L623.502 5.99979ZM746.502 5.99979L749.495 6.19803L749.707 2.99979H746.502V5.99979ZM743.502 51.2998V48.2998H708.702V51.2998V54.2998H743.502V51.2998ZM708.702 51.2998H705.702V192.3H708.702H711.702V51.2998H708.702ZM708.702 192.3V189.3H657.402V192.3V195.3H708.702V192.3ZM657.402 192.3H660.402V51.2998H657.402H654.402V192.3H657.402ZM657.402 51.2998V48.2998H620.502V51.2998V54.2998H657.402V51.2998ZM620.502 51.2998L623.495 51.498L626.495 6.19803L623.502 5.99979L620.508 5.80154L617.508 51.1015L620.502 51.2998ZM623.502 5.99979V8.99979H746.502V5.99979V2.99979H623.502V5.99979ZM746.502 5.99979L743.508 5.80154L740.508 51.1016L743.502 51.2998L746.495 51.498L749.495 6.19803L746.502 5.99979ZM769.349 25.4998L766.975 23.6646L766.968 23.6745L766.96 23.6845L769.349 25.4998ZM882.149 25.1998L879.756 27.0101L879.764 27.0203L879.772 27.0305L882.149 25.1998ZM881.849 171.3L884.277 173.061V173.061L881.849 171.3ZM769.349 171.6L766.916 173.355V173.355L769.349 171.6ZM843.149 60.2998L840.387 61.4715L840.409 61.5227L840.432 61.5731L843.149 60.2998ZM808.349 60.2998L811.128 61.4289L811.134 61.4142L811.14 61.3994L808.349 60.2998ZM808.649 142.8L805.914 144.035L805.939 144.089L805.965 144.141L808.649 142.8ZM843.749 143.1L846.486 144.327V144.327L843.749 143.1ZM769.349 25.4998L771.722 27.335C782.557 13.324 800.4 5.99979 826.049 5.99979V2.99979V-0.000213623C799.297 -0.000213623 779.34 7.67561 766.975 23.6646L769.349 25.4998ZM826.049 2.99979V5.99979C851.719 5.99979 869.332 13.2351 879.756 27.0101L882.149 25.1998L884.541 23.3895C872.565 7.5645 852.778 -0.000213623 826.049 -0.000213623V2.99979ZM882.149 25.1998L879.772 27.0305C890.556 41.0304 896.249 64.3003 896.249 97.4998H899.249H902.249C902.249 63.8993 896.542 38.9692 884.525 23.3691L882.149 25.1998ZM899.249 97.4998H896.249C896.249 130.456 890.472 154.295 879.42 169.539L881.849 171.3L884.277 173.061C896.425 156.305 902.249 130.944 902.249 97.4998H899.249ZM881.849 171.3L879.42 169.539C868.554 184.526 850.82 192.3 825.449 192.3V195.3V198.3C852.077 198.3 871.943 190.074 884.277 173.061L881.849 171.3ZM825.449 195.3V192.3C800.06 192.3 782.439 184.616 771.781 169.844L769.349 171.6L766.916 173.355C779.058 190.184 798.837 198.3 825.449 198.3V195.3ZM769.349 171.6L771.781 169.844C760.93 154.804 755.249 131.068 755.249 98.0998H752.249H749.249C749.249 131.532 754.968 156.796 766.916 173.355L769.349 171.6ZM752.249 98.0998H755.249C755.249 64.906 760.939 41.5226 771.737 27.315L769.349 25.4998L766.96 23.6845C754.958 39.477 749.249 64.4936 749.249 98.0998H752.249ZM847.649 97.4998H850.649C850.649 88.23 850.271 80.4005 849.502 74.0395C848.738 67.7265 847.566 62.6553 845.865 59.0265L843.149 60.2998L840.432 61.5731C841.731 64.3443 842.809 68.6731 843.545 74.7601C844.276 80.799 844.649 88.3696 844.649 97.4998H847.649ZM843.149 60.2998L845.91 59.1281C844.267 55.2551 841.656 52.2519 838.088 50.2565C834.566 48.2868 830.297 47.3998 825.449 47.3998V50.3998V53.3998C829.6 53.3998 832.781 54.1628 835.159 55.4931C837.492 56.7977 839.23 58.7445 840.387 61.4715L843.149 60.2998ZM825.449 50.3998V47.3998C820.692 47.3998 816.506 48.2897 813.07 50.2785C809.588 52.2947 807.085 55.3221 805.557 59.2002L808.349 60.2998L811.14 61.3994C812.212 58.6775 813.859 56.7549 816.077 55.4711C818.341 54.1599 821.405 53.3998 825.449 53.3998V50.3998ZM808.349 60.2998L805.569 59.1707C804.111 62.7595 803.1 67.7633 802.44 74.0095C801.775 80.3004 801.449 88.0386 801.449 97.1998H804.449H807.449C807.449 88.161 807.772 80.6492 808.407 74.6401C809.047 68.5863 809.986 64.2401 811.128 61.4289L808.349 60.2998ZM804.449 97.1998H801.449V104.4H804.449H807.449V97.1998H804.449ZM804.449 104.4H801.449C801.449 114.16 801.8 122.328 802.516 128.876C803.226 135.362 804.315 140.494 805.914 144.035L808.649 142.8L811.383 141.565C810.182 138.906 809.171 134.537 808.481 128.224C807.797 121.971 807.449 114.039 807.449 104.4H804.449ZM808.649 142.8L805.965 144.141C809.636 151.484 816.829 154.8 826.349 154.8V151.8V148.8C818.268 148.8 813.661 146.116 811.332 141.458L808.649 142.8ZM826.349 151.8V154.8C835.957 154.8 843.205 151.646 846.486 144.327L843.749 143.1L841.011 141.873C839.092 146.153 834.74 148.8 826.349 148.8V151.8ZM843.749 143.1L846.486 144.327C847.983 140.987 848.997 136.158 849.656 130.073C850.322 123.926 850.649 116.259 850.649 107.1H847.649H844.649C844.649 116.14 844.325 123.573 843.691 129.427C843.05 135.342 842.114 139.412 841.011 141.873L843.749 143.1ZM847.649 107.1H850.649V97.4998H847.649H844.649V107.1H847.649ZM926.874 19.1998L929.035 21.2807V21.2807L926.874 19.1998ZM1025.27 8.3998L1028.25 8.7719L1028.6 5.97665L1025.83 5.45224L1025.27 8.3998ZM1019.27 56.3998L1018.6 59.322L1021.84 60.0753L1022.25 56.7719L1019.27 56.3998ZM970.974 69.5998L969.364 72.1308L969.389 72.1469L969.415 72.1624L970.974 69.5998ZM987.474 78.5998L986.133 81.2831L986.167 81.3001L986.201 81.3162L987.474 78.5998ZM1006.67 89.6998L1004.97 92.1719L1005 92.1902L1005.03 92.2079L1006.67 89.6998ZM1022.87 108L1020.25 109.446L1020.26 109.471L1020.27 109.495L1022.87 108ZM1014.47 179.7L1012.33 177.599V177.599L1014.47 179.7ZM916.374 186.6L913.383 186.379L913.209 188.724L915.445 189.452L916.374 186.6ZM919.674 141.9L920.509 139.018L916.955 137.989L916.682 141.679L919.674 141.9ZM970.074 129.6L968.31 132.026L968.335 132.045L968.361 132.063L970.074 129.6ZM953.874 120L955.216 117.317V117.317L953.874 120ZM934.374 108.9L932.728 111.408L932.746 111.419L932.764 111.431L934.374 108.9ZM917.874 90.5998L915.246 92.0456L915.259 92.0705L915.274 92.0952L917.874 90.5998ZM911.274 62.0998H914.274C914.274 44.9207 919.272 31.4192 929.035 21.2807L926.874 19.1998L924.713 17.1189C913.676 28.5804 908.274 43.6788 908.274 62.0998H911.274ZM926.874 19.1998L929.035 21.2807C938.758 11.1837 952.114 5.99979 969.474 5.99979V2.99979V-0.000213623C950.835 -0.000213623 935.79 5.61586 924.713 17.1189L926.874 19.1998ZM969.474 2.99979V5.99979C987.476 5.99979 1005.89 7.78008 1024.72 11.3474L1025.27 8.3998L1025.83 5.45224C1006.66 1.81952 987.873 -0.000213623 969.474 -0.000213623V2.99979ZM1025.27 8.3998L1022.3 8.02769L1016.3 56.0277L1019.27 56.3998L1022.25 56.7719L1028.25 8.7719L1025.27 8.3998ZM1019.27 56.3998L1019.95 53.4776C1000.19 48.8859 986.268 46.4998 978.474 46.4998V49.4998V52.4998C985.481 52.4998 998.76 54.7137 1018.6 59.322L1019.27 56.3998ZM978.474 49.4998V46.4998C973.448 46.4998 969.122 47.503 966.013 50.0169C962.782 52.6294 961.374 56.4486 961.374 60.8998H964.374H967.374C967.374 57.751 968.317 55.8702 969.786 54.6827C971.376 53.3966 974.101 52.4998 978.474 52.4998V49.4998ZM964.374 60.8998H961.374C961.374 65.5041 964.738 69.187 969.364 72.1308L970.974 69.5998L972.585 67.0688C968.411 64.4127 967.374 62.2955 967.374 60.8998H964.374ZM970.974 69.5998L969.415 72.1624C974.104 75.017 979.681 78.0572 986.133 81.2831L987.474 78.5998L988.816 75.9165C982.468 72.7425 977.044 69.7826 972.534 67.0372L970.974 69.5998ZM987.474 78.5998L986.201 81.3162C992.439 84.2401 998.697 87.8559 1004.97 92.1719L1006.67 89.6998L1008.37 87.2277C1001.85 82.7437 995.31 78.9595 988.748 75.8834L987.474 78.5998ZM1006.67 89.6998L1005.03 92.2079C1010.95 96.0921 1016.04 101.792 1020.25 109.446L1022.87 108L1025.5 106.554C1020.91 98.2074 1015.2 91.7075 1008.32 87.1917L1006.67 89.6998ZM1022.87 108L1020.27 109.495C1024.58 116.985 1026.77 125.657 1026.77 135.6H1029.77H1032.77C1032.77 124.743 1030.37 115.015 1025.48 106.504L1022.87 108ZM1029.77 135.6H1026.77C1026.77 154.062 1021.83 167.915 1012.33 177.599L1014.47 179.7L1016.62 181.8C1027.52 170.684 1032.77 155.137 1032.77 135.6H1029.77ZM1014.47 179.7L1012.33 177.599C1002.85 187.27 989.214 192.3 970.974 192.3V195.3V198.3C990.335 198.3 1005.7 192.93 1016.62 181.8L1014.47 179.7ZM970.974 195.3V192.3C952.692 192.3 934.806 189.45 917.304 183.747L916.374 186.6L915.445 189.452C933.543 195.349 952.057 198.3 970.974 198.3V195.3ZM916.374 186.6L919.366 186.821L922.666 142.121L919.674 141.9L916.682 141.679L913.383 186.379L916.374 186.6ZM919.674 141.9L918.84 144.781C940.206 150.972 955.492 154.2 964.374 154.2V151.2V148.2C956.457 148.2 941.943 145.228 920.509 139.018L919.674 141.9ZM964.374 151.2V154.2C968.95 154.2 972.942 153.2 975.807 150.676C978.746 148.087 979.974 144.368 979.974 140.1H976.974H973.974C973.974 143.232 973.103 145.062 971.841 146.174C970.507 147.349 968.199 148.2 964.374 148.2V151.2ZM976.974 140.1H979.974C979.974 134.911 976.789 130.616 971.788 127.137L970.074 129.6L968.361 132.063C972.56 134.983 973.974 137.689 973.974 140.1H976.974ZM970.074 129.6L971.839 127.174C967.271 123.852 961.721 120.569 955.216 117.317L953.874 120L952.533 122.683C958.828 125.831 964.078 128.948 968.31 132.026L970.074 129.6ZM953.874 120L955.216 117.317C948.916 114.167 942.506 110.519 935.985 106.369L934.374 108.9L932.764 111.431C939.443 115.681 946.032 119.433 952.533 122.683L953.874 120ZM934.374 108.9L936.02 106.392C930.086 102.497 924.888 96.7795 920.475 89.1044L917.874 90.5998L915.274 92.0952C920.06 100.42 925.862 106.902 932.728 111.408L934.374 108.9ZM917.874 90.5998L920.503 89.1541C916.392 81.6793 914.274 72.6974 914.274 62.0998H911.274H908.274C908.274 73.5022 910.557 83.5203 915.246 92.0456L917.874 90.5998Z" fill="white" mask="url(#path-1-outside-1_227_527)"/>
</svg>
