<svg width="17" height="18" viewBox="0 0 17 18" fill="none" xmlns="http://www.w3.org/2000/svg">
<path d="M9.15023 7.71203L4.36423 1.00203C4.30873 0.924073 4.23538 0.860524 4.15031 0.816686C4.06525 0.772848 3.97093 0.749994 3.87523 0.750031H1.34923C1.23913 0.750172 1.13119 0.780605 1.03724 0.837997C0.943278 0.895389 0.866924 0.977527 0.816532 1.07542C0.766141 1.17331 0.743657 1.28318 0.75154 1.39299C0.759424 1.50281 0.797373 1.60834 0.861231 1.69803L6.98823 10.288M9.15023 7.71203L15.2772 16.302C15.3411 16.3917 15.379 16.4973 15.3869 16.6071C15.3948 16.7169 15.3723 16.8268 15.3219 16.9246C15.2715 17.0225 15.1952 17.1047 15.1012 17.1621C15.0073 17.2195 14.8993 17.2499 14.7892 17.25H12.2632C12.1675 17.2501 12.0732 17.2272 11.9881 17.1834C11.9031 17.1395 11.8297 17.076 11.7742 16.998L6.98823 10.288M9.15023 7.71203L14.9922 0.750031M6.98823 10.288L1.14623 17.25" stroke="white" stroke-width="1.5" stroke-linecap="round" stroke-linejoin="round"/>
</svg>
